<svg id="Layer_1" data-name="Layer 1" xmlns="http://www.w3.org/2000/svg" viewBox="0 0 1113 370.13"><polygon points="138.26 64.87 112.91 108.78 138.26 152.69 163.62 108.78 138.26 64.87"/><polygon points="94.07 141.41 0 304.35 91.44 304.35 105.26 280.43 51.29 279.76 94.78 204.44 138.26 279.76 181.75 204.44 225.24 279.76 170.89 279.76 185.09 304.35 276.53 304.35 182.46 141.41 138.26 217.96 94.07 141.41"/><line x1="369.52" y1="1" x2="369.52" y2="368.22" fill="none" stroke="#000" stroke-miterlimit="10" stroke-width="6"/><g style="isolation:isolate"><g style="isolation:isolate"><path d="M465,286.47l19.59-52.86h5.91L510.83,286l-6.07,1-5.91-15.54H476.54l-5.52,15Zm13.21-20h18.82l-9.57-24.8Z"/></g><g style="isolation:isolate"><path d="M529.09,255.72a26.65,26.65,0,0,0-6.45,4.78v26H516.5v-37.7h3.65l2,6.06a36.21,36.21,0,0,1,6.14-4.12,13.5,13.5,0,0,1,6.29-1.94l1.48,4.89A14.85,14.85,0,0,0,529.09,255.72Z"/></g><g style="isolation:isolate"><path d="M552.18,249.39H559l2,4.66h-8.87v21.77a7.53,7.53,0,0,0,1.33,4.74,4.77,4.77,0,0,0,4,1.71,9.42,9.42,0,0,0,3.42-.78l1.4,4.82a13.25,13.25,0,0,1-5.75,1.33,10.46,10.46,0,0,1-7.74-2.84Q546,282,546,276.67V254.05H540.6l-.08-4.66H546v-9.64l6.14-1.71Z"/></g><g style="isolation:isolate"><path d="M575.51,237.1a3.9,3.9,0,0,1-1.25,2.92,4.1,4.1,0,0,1-3,1.2,4,4,0,0,1-4.12-4.12,4.13,4.13,0,0,1,1.17-3,3.93,3.93,0,0,1,2.95-1.2,4.25,4.25,0,0,1,4.2,4.19Zm-1,11.67v37.7h-6.22v-37.7Z"/><path d="M586.31,254.05h-5.67l-.08-4.66h5.75v-5.91a12.16,12.16,0,0,1,2.84-8.44,9.91,9.91,0,0,1,7.73-3.14,12.68,12.68,0,0,1,3.11.39,10.82,10.82,0,0,1,2.57.93l-1.4,5a7.55,7.55,0,0,0-1.63-.54,7.83,7.83,0,0,0-1.79-.23q-5.29,0-5.29,6.45v5.52h6.92l2,4.66h-8.94v50.3h-6.14Z"/></g><g style="isolation:isolate"><path d="M614.69,237.1a3.9,3.9,0,0,1-1.25,2.92,4.1,4.1,0,0,1-3,1.2,4,4,0,0,1-4.12-4.12,4.13,4.13,0,0,1,1.17-3,3.93,3.93,0,0,1,3-1.2,4.25,4.25,0,0,1,4.2,4.19Zm-1,11.67v37.7h-6.22v-37.7Z"/></g><g style="isolation:isolate"><path d="M638.32,282.27a20.72,20.72,0,0,0,5.6-.62,27.1,27.1,0,0,0,4.89-2l2,4.43a21.8,21.8,0,0,1-6.07,2.45,25.55,25.55,0,0,1-6.29,1,18.19,18.19,0,0,1-9.72-2.53,16.34,16.34,0,0,1-6.3-7.07,23.76,23.76,0,0,1-2.17-10.38,22.07,22.07,0,0,1,2.29-10.22,17.13,17.13,0,0,1,6.49-7,18.67,18.67,0,0,1,9.8-2.53,25.21,25.21,0,0,1,6.25,1,20.27,20.27,0,0,1,6,2.45l-1.87,4.35a51.71,51.71,0,0,0-5.16-1.94,18.68,18.68,0,0,0-5.33-.63,10.74,10.74,0,0,0-8.86,4.08,16.5,16.5,0,0,0-3.35,10.38q0,6.61,3.11,10.73A10.38,10.38,0,0,0,638.32,282.27Z"/></g><g style="isolation:isolate"><path d="M665.37,237.1a3.9,3.9,0,0,1-1.25,2.92,4.1,4.1,0,0,1-3,1.2,4,4,0,0,1-4.12-4.12,4.13,4.13,0,0,1,1.17-3,3.93,3.93,0,0,1,2.95-1.2,4.25,4.25,0,0,1,4.2,4.19Zm-1,11.67v37.7h-6.22v-37.7Z"/></g><g style="isolation:isolate"><path d="M687,253.12a21.57,21.57,0,0,0-5.72.66,39.33,39.33,0,0,0-5.17,1.9L674.31,251a17.9,17.9,0,0,1,5.94-2.33,29.46,29.46,0,0,1,6.5-.94,17.12,17.12,0,0,1,7.61,1.64,12.64,12.64,0,0,1,5.21,4.51,11.66,11.66,0,0,1,1.87,6.53v26h-4.59l-.78-3.81a19.8,19.8,0,0,1-5.2,3.38,14.43,14.43,0,0,1-6.07,1.44q-6.3,0-9.6-3.27a11.38,11.38,0,0,1-3.3-8.47,10.29,10.29,0,0,1,3.73-8.47q3.74-3,9.87-3h9.72v-2.1a10.12,10.12,0,0,0-2-6.61Q691.26,253.11,687,253.12Zm-1.63,15.24a7.58,7.58,0,0,0-5.72,2.13,7.31,7.31,0,0,0-2.06,5.25,6.91,6.91,0,0,0,1.79,4.74,6.67,6.67,0,0,0,5.29,2,11.59,11.59,0,0,0,5.79-1.55,17.7,17.7,0,0,0,4.86-4v-8.55Z"/></g><g style="isolation:isolate"><path d="M715.52,231.58v54.89h-6.14V232.36Z"/></g><g style="isolation:isolate"><path d="M752.59,233.61v52.86h-6.14V233.61Z"/></g><g style="isolation:isolate"><path d="M779,252.89a13.49,13.49,0,0,0-6.33,1.94,24.47,24.47,0,0,0-6.26,4.9v26.74h-6.14v-37.7h4.58l1,5.36a22.65,22.65,0,0,1,6.69-4.66,17.65,17.65,0,0,1,7.54-1.87q6,0,8.9,3.61t2.92,9.68v25.5h-6.14V261.75a11.65,11.65,0,0,0-1.56-6.53C783.19,253.66,781.46,252.89,779,252.89Z"/><path d="M809.42,249.39h6.84l2,4.66h-8.86v21.77a7.59,7.59,0,0,0,1.32,4.74,4.79,4.79,0,0,0,4,1.71,9.33,9.33,0,0,0,3.42-.78l1.4,4.82a13.18,13.18,0,0,1-5.75,1.33,10.44,10.44,0,0,1-7.73-2.84c-1.9-1.89-2.84-4.6-2.84-8.13V254.05h-5.44l-.08-4.66h5.52v-9.64l6.14-1.71Z"/><path d="M841.52,247.75q8.25,0,12.17,5.76t3.93,15.08H830.25q.24,6.38,3.46,10.07t9.91,3.69a18.77,18.77,0,0,0,5.56-.78,42.82,42.82,0,0,0,6-2.49l1.94,4.51a35.89,35.89,0,0,1-6.37,2.84,22.58,22.58,0,0,1-7.08,1.05q-9.65,0-14.69-5.44t-5-14.54A24.07,24.07,0,0,1,826,257.28a16,16,0,0,1,6.06-7A17.37,17.37,0,0,1,841.52,247.75Zm-.23,5.21a9.7,9.7,0,0,0-7.58,3.07,14.35,14.35,0,0,0-3.3,8.36h21.14Q850.23,253,841.29,253Z"/><path d="M872,231.58v54.89h-6.14V232.36Z"/><path d="M889.41,231.58v54.89h-6.14V232.36Z"/><path d="M907.14,237.1a3.9,3.9,0,0,1-1.25,2.92,4.1,4.1,0,0,1-2.95,1.2,4,4,0,0,1-4.12-4.12,4.17,4.17,0,0,1,1.16-3,4,4,0,0,1,3-1.2,4.25,4.25,0,0,1,4.2,4.19Zm-1,11.67v37.7h-6.22v-37.7Z"/><path d="M946.55,290.59a12.66,12.66,0,0,1-2,7.07,13.56,13.56,0,0,1-5.91,4.9,21.6,21.6,0,0,1-9.1,1.79,30.05,30.05,0,0,1-6.72-1,21.52,21.52,0,0,1-6.41-2.45l1.86-4.51a36.16,36.16,0,0,0,5.41,2.18,20.22,20.22,0,0,0,5.63.7,13.16,13.16,0,0,0,8-2.26,7.59,7.59,0,0,0,3.07-6.53v-6a18.12,18.12,0,0,1-4.47,2.17,14.1,14.1,0,0,1-4.39.78q-8.4,0-13.18-5.48t-4.78-14.58a22.69,22.69,0,0,1,2.22-10.22,16.52,16.52,0,0,1,6.29-7,18.06,18.06,0,0,1,9.6-2.49,13.84,13.84,0,0,1,5,1,19.77,19.77,0,0,1,4.9,2.72l1.32-2.72h3.73Zm-6.22-12V256.31a12.84,12.84,0,0,0-8.86-3.35,10.19,10.19,0,0,0-8.63,4,17.09,17.09,0,0,0-3.11,10.38q0,6.75,3,10.84a10.1,10.1,0,0,0,8.67,4.08,12.84,12.84,0,0,0,4.94-.89A12.62,12.62,0,0,0,940.33,278.62Z"/><path d="M972,247.75q8.24,0,12.17,5.76t3.92,15.08H960.7q.22,6.38,3.46,10.07t9.91,3.69a18.82,18.82,0,0,0,5.56-.78,43.25,43.25,0,0,0,6-2.49l1.94,4.51a35.57,35.57,0,0,1-6.37,2.84,22.52,22.52,0,0,1-7.07,1.05q-9.64,0-14.7-5.44T954.4,267.5a24.22,24.22,0,0,1,2.06-10.22,16,16,0,0,1,6.06-7A17.38,17.38,0,0,1,972,247.75Zm-.23,5.21a9.69,9.69,0,0,0-7.58,3.07,14.35,14.35,0,0,0-3.31,8.36H982Q980.68,253,971.74,253Z"/><path d="M1014.26,252.89a13.53,13.53,0,0,0-6.34,1.94,24.42,24.42,0,0,0-6.25,4.9v26.74h-6.15v-37.7h4.59l1,5.36a22.39,22.39,0,0,1,6.69-4.66,17.62,17.62,0,0,1,7.54-1.87q6,0,8.9,3.61t2.91,9.68v25.5H1021V261.75a11.74,11.74,0,0,0-1.55-6.53C1018.43,253.66,1016.69,252.89,1014.26,252.89Z"/><path d="M1052.43,282.27a20.67,20.67,0,0,0,5.6-.62,27.1,27.1,0,0,0,4.89-2l1.95,4.43a21.8,21.8,0,0,1-6.07,2.45,25.55,25.55,0,0,1-6.29,1,18.19,18.19,0,0,1-9.72-2.53,16.34,16.34,0,0,1-6.3-7.07,23.76,23.76,0,0,1-2.17-10.38,22.07,22.07,0,0,1,2.29-10.22,17.13,17.13,0,0,1,6.49-7,18.67,18.67,0,0,1,9.8-2.53,25.21,25.21,0,0,1,6.25,1,20.27,20.27,0,0,1,5.95,2.45l-1.86,4.35a52.69,52.69,0,0,0-5.17-1.94,18.68,18.68,0,0,0-5.33-.63,10.74,10.74,0,0,0-8.86,4.08,16.44,16.44,0,0,0-3.34,10.38q0,6.61,3.1,10.73A10.38,10.38,0,0,0,1052.43,282.27Z"/><path d="M1087.49,247.75q8.23,0,12.17,5.76t3.92,15.08h-27.36q.22,6.38,3.46,10.07t9.91,3.69a18.82,18.82,0,0,0,5.56-.78,43.25,43.25,0,0,0,6-2.49l1.95,4.51a35.66,35.66,0,0,1-6.38,2.84,22.47,22.47,0,0,1-7.07,1.05q-9.64,0-14.7-5.44t-5-14.54a24.22,24.22,0,0,1,2.06-10.22,16,16,0,0,1,6.06-7A17.38,17.38,0,0,1,1087.49,247.75Zm-.23,5.21a9.69,9.69,0,0,0-7.58,3.07,14.35,14.35,0,0,0-3.31,8.36h21.15Q1096.2,253,1087.26,253Z"/></g></g><g style="isolation:isolate"><g style="isolation:isolate"><path d="M539.89,153.47,519.62,182l-8,1.11-26-33.34V216H465.06V107.52h13.08l36.7,50.1,33.34-50.1h12.61V216h-20.9Z"/></g><g style="isolation:isolate"><path d="M614.55,136.56a51.37,51.37,0,0,1,13.4,2.23,45.72,45.72,0,0,1,13.4,5.91l-5.9,14.83a75.36,75.36,0,0,0-10.85-4,38.26,38.26,0,0,0-9.89-1.27,18.1,18.1,0,0,0-14.28,6.54q-5.67,6.54-5.66,16.59t5.58,16.43a18.19,18.19,0,0,0,14.36,6.38,38.26,38.26,0,0,0,9.89-1.27,73,73,0,0,0,10.85-4l5.9,15a35.51,35.51,0,0,1-12.92,5.9,56.42,56.42,0,0,1-13.88,2.07A46,46,0,0,1,592.77,213a34.36,34.36,0,0,1-14.36-14.12q-5-9.18-5-21.46a44.45,44.45,0,0,1,5-21.54,34.79,34.79,0,0,1,14.36-14.28Q602.12,136.55,614.55,136.56Z"/></g><g style="isolation:isolate"><path d="M732.29,153.47,712,182l-8,1.11L678,149.8V216H657.46V107.52h13.08l36.7,50.1,33.34-50.1h12.6V216H732.29Z"/></g><g style="isolation:isolate"><path d="M798.33,155.7a50.81,50.81,0,0,0-11.65,1.52,57.88,57.88,0,0,0-10.85,3.59l-5.58-17.23q4.14-2.72,13.24-4.87A66.92,66.92,0,0,1,798,136.56a38.58,38.58,0,0,1,16.91,3.67,30.65,30.65,0,0,1,12.2,10.21,25.05,25.05,0,0,1,4.55,14.68V216H818.11l-3.51-8.3q-9.74,10.22-20.42,10.21-13.87,0-20.9-6.78t-7-18.26q0-11.81,8-18.27t21.38-6.46h15.15c-.1-3.94-1.25-7-3.43-9.18S802.16,155.7,798.33,155.7Zm-3,26.33a10.94,10.94,0,0,0-8.22,3.19,10.6,10.6,0,0,0-3.11,7.66,7.94,7.94,0,0,0,2.79,6.06,10.12,10.12,0,0,0,7.1,2.55q9.25,0,17.07-7.66V182Z"/></g><g style="isolation:isolate"><path d="M870.92,217.92A56.35,56.35,0,0,1,857,215.85a35.43,35.43,0,0,1-12.92-5.9l6.22-14q11.8,5.26,20.26,5.26a21.58,21.58,0,0,0,8.78-1.75q4-1.75,4-4.95,0-6.22-13.56-10.37a60.39,60.39,0,0,1-18.34-9.41q-7.35-5.74-7.34-14.52,0-11,8.13-17.31t22-6.3a49.64,49.64,0,0,1,13.24,2.23,46,46,0,0,1,13.24,5.91l-6.22,13.88a74.51,74.51,0,0,0-10.77-4,37.38,37.38,0,0,0-9.81-1.28,10.72,10.72,0,0,0-6.62,2A5.83,5.83,0,0,0,864.7,160q0,2.07,3.11,3.75a65.67,65.67,0,0,0,9,3.75A61.48,61.48,0,0,1,895.65,178q7.5,6.38,7.5,15.63,0,11.66-8.3,18T870.92,217.92Z"/></g><g style="isolation:isolate"><path d="M941.6,138.79h14l6.38,16H941.6v32.86q0,6.22,2.95,10a10,10,0,0,0,8.37,3.83,19.43,19.43,0,0,0,8.46-2.07l6.06,15a21.28,21.28,0,0,1-7.1,3.35,29.44,29.44,0,0,1-8.53,1.44q-14.52,0-22.66-7.34T921,191.28V154.75H910.65v-16H921V120.45l20.58-3.67Z"/><path d="M1012.75,136.56q11.64,0,19.62,5.42a32.3,32.3,0,0,1,11.81,14.6,52.81,52.81,0,0,1,3.83,20.5v6.38H995.84q1.59,8.14,6.94,12.45t16.35,4.3a35.27,35.27,0,0,0,11.49-1.75,66.7,66.7,0,0,0,11-5.1l6.06,15a45.72,45.72,0,0,1-12.76,7.1,48.07,48.07,0,0,1-16.28,2.47q-22,0-33.42-10.76T973.82,177.4a46.88,46.88,0,0,1,4.71-21.54A33.69,33.69,0,0,1,992,141.58Q1000.79,136.55,1012.75,136.56Zm-.48,17.71a15.3,15.3,0,0,0-10.69,3.91c-2.87,2.6-4.73,6.41-5.58,11.4h32.39q-1.61-7.65-5.67-11.48A14.61,14.61,0,0,0,1012.27,154.27Z"/><path d="M1096,159.05a66.38,66.38,0,0,0-14.44,9.74V216h-20.74V138.63h10.85l6.86,12.93a67.06,67.06,0,0,1,13.08-8.94q7.5-4,13.24-4l4.15,16.59Q1103.69,155.22,1096,159.05Z"/></g></g></svg>